{
	"asset":{
		"generator":"Khronos glTF Blender I/O v3.6.27",
		"version":"2.0"
	},
	"scene":0,
	"scenes":[
		{
			"name":"Scene",
			"nodes":[
				8,
				13
			]
		}
	],
	"nodes":[
		{
			"name":"polySurface55"
		},
		{
			"children":[
				0
			],
			"name":"polySurface52"
		},
		{
			"children":[
				1
			],
			"name":"polySurface49"
		},
		{
			"children":[
				2
			],
			"name":"CH_trex",
			"rotation":[
				0,
				-0.7071068286895752,
				-0.7071068286895752,
				5.338508302088485e-08
			],
			"scale":[
				0.10000002384185791,
				0.10000001639127731,
				0.10000001639127731
			]
		},
		{
			"name":"polySurface58"
		},
		{
			"children":[
				3,
				4
			],
			"name":"RootNode"
		},
		{
			"children":[
				5
			],
			"name":"trex-finish.FBX",
			"rotation":[
				0.70710688829422,
				0,
				0,
				0.7071066498756409
			]
		},
		{
			"children":[
				6
			],
			"name":"RootNode (model correction matrix)"
		},
		{
			"children":[
				7
			],
			"name":"RootNode (gltf orientation matrix)",
			"rotation":[
				-0.70710688829422,
				0,
				0,
				0.7071066498756409
			]
		},
		{
			"mesh":0,
			"name":"Beach Ball_BeachBall_0",
			"translation":[
				-0.14624308049678802,
				0,
				0
			]
		},
		{
			"children":[
				9
			],
			"name":"Beach Ball",
			"rotation":[
				-0.70710688829422,
				0,
				0,
				0.7071066498756409
			],
			"scale":[
				100,
				99.99999237060547,
				99.99999237060547
			]
		},
		{
			"children":[
				10
			],
			"name":"RootNode.001"
		},
		{
			"children":[
				11
			],
			"name":"d1b603675cd84ecb8fd40a6065e04d23.fbx",
			"rotation":[
				0.70710688829422,
				0,
				0,
				0.7071066498756409
			],
			"scale":[
				0.009999999776482582,
				0.010000001639127731,
				0.010000001639127731
			]
		},
		{
			"children":[
				12
			],
			"name":"Sketchfab_model",
			"rotation":[
				-0.70710688829422,
				0,
				0,
				0.7071066498756409
			],
			"scale":[
				97.26832580566406,
				97.26834106445312,
				97.26834106445312
			],
			"translation":[
				13.200780868530273,
				0,
				0
			]
		}
	],
	"materials":[
		{
			"doubleSided":true,
			"name":"BeachBall",
			"normalTexture":{
				"index":0
			},
			"pbrMetallicRoughness":{
				"baseColorTexture":{
					"index":1
				},
				"metallicFactor":0,
				"metallicRoughnessTexture":{
					"index":2
				}
			}
		}
	],
	"meshes":[
		{
			"name":"Beach Ball_BeachBall_0",
			"primitives":[
				{
					"attributes":{
						"POSITION":0,
						"NORMAL":1,
						"TEXCOORD_0":2,
						"TEXCOORD_1":3,
						"TEXCOORD_2":4
					},
					"indices":5,
					"material":0
				}
			]
		}
	],
	"textures":[
		{
			"sampler":0,
			"source":0
		},
		{
			"sampler":0,
			"source":1
		},
		{
			"sampler":0,
			"source":2
		}
	],
	"images":[
		{
			"bufferView":6,
			"mimeType":"image/png",
			"name":"BeachBall_normal"
		},
		{
			"bufferView":7,
			"mimeType":"image/jpeg",
			"name":"BeachBall_baseColor"
		},
		{
			"bufferView":8,
			"mimeType":"image/png",
			"name":"BeachBall_metallicRoughness"
		}
	],
	"accessors":[
		{
			"bufferView":0,
			"componentType":5126,
			"count":460,
			"max":[
				0.20000001788139343,
				0.20000000298023224,
				0.20000000298023224
			],
			"min":[
				-0.19999997317790985,
				-0.20000001788139343,
				-0.20000000298023224
			],
			"type":"VEC3"
		},
		{
			"bufferView":1,
			"componentType":5126,
			"count":460,
			"type":"VEC3"
		},
		{
			"bufferView":2,
			"componentType":5126,
			"count":460,
			"type":"VEC2"
		},
		{
			"bufferView":3,
			"componentType":5126,
			"count":460,
			"type":"VEC2"
		},
		{
			"bufferView":4,
			"componentType":5126,
			"count":460,
			"type":"VEC2"
		},
		{
			"bufferView":5,
			"componentType":5123,
			"count":648,
			"type":"SCALAR"
		}
	],
	"bufferViews":[
		{
			"buffer":0,
			"byteLength":5520,
			"byteOffset":0,
			"target":34962
		},
		{
			"buffer":0,
			"byteLength":5520,
			"byteOffset":5520,
			"target":34962
		},
		{
			"buffer":0,
			"byteLength":3680,
			"byteOffset":11040,
			"target":34962
		},
		{
			"buffer":0,
			"byteLength":3680,
			"byteOffset":14720,
			"target":34962
		},
		{
			"buffer":0,
			"byteLength":3680,
			"byteOffset":18400,
			"target":34962
		},
		{
			"buffer":0,
			"byteLength":1296,
			"byteOffset":22080,
			"target":34963
		},
		{
			"buffer":0,
			"byteLength":586957,
			"byteOffset":23376
		},
		{
			"buffer":0,
			"byteLength":48249,
			"byteOffset":610336
		},
		{
			"buffer":0,
			"byteLength":222,
			"byteOffset":658588
		}
	],
	"samplers":[
		{
			"magFilter":9729,
			"minFilter":9987
		}
	],
	"buffers":[
		{
			"byteLength":658812,
			"uri":"data:application/octet-stream;base64,"
		}
	]
}
